<svg 
 xmlns="http://www.w3.org/2000/svg"
 xmlns:xlink="http://www.w3.org/1999/xlink"
 width="170px" height="169px">
<defs>
<linearGradient id="PSgrad_0" x1="73.135%" x2="0%" y1="68.2%" y2="0%">
  <stop offset="0%" stop-color="rgb(0,88,134)" stop-opacity="1" />
  <stop offset="100%" stop-color="rgb(76,184,212)" stop-opacity="1" />
</linearGradient>

</defs>
<path fill-rule="evenodd"  fill="url(#PSgrad_0)"
 d="M77.000,1.000 C97.457,0.514 112.824,4.413 126.000,11.000 C129.195,25.432 129.022,35.604 123.000,54.000 C132.281,52.605 138.000,60.000 138.000,60.000 C138.000,60.000 144.017,38.811 145.000,25.000 C149.284,32.302 165.824,45.110 169.000,79.000 C174.940,142.370 103.586,186.956 48.000,160.000 C48.333,159.333 48.667,158.667 50.715,157.414 C84.282,144.538 111.835,111.554 123.000,91.000 C127.075,89.775 129.066,91.057 135.000,84.000 C139.911,75.970 135.894,68.356 133.000,65.000 C130.273,62.901 125.757,57.689 115.000,61.000 C109.947,63.426 108.357,65.838 106.000,71.000 C104.710,76.562 107.463,83.973 107.000,86.000 C105.331,93.301 71.029,136.594 29.000,148.000 C26.366,142.169 9.792,129.821 5.000,112.000 C-18.853,23.296 65.113,0.255 77.000,1.000 Z"/>
</svg>